<?xml version="1.0" ?>
<svg width="64px" height="64px" viewBox="0 0 64 64" style="enable-background:new 0 0 64 64;" version="1.1" xml:space="preserve" xmlns="http://www.w3.org/2000/svg" xmlns:xlink="http://www.w3.org/1999/xlink">
   <style type="text/css">
      .st0{fill:#FFEEA9;}
      .st1{fill:#D32436;}
      .st2{fill:#8DD1D3;}
      .st3{fill:#330D00;}
      .st4{fill:blue;stroke:#330D00;stroke-linecap:round;stroke-linejoin:round;stroke-miterlimit:10;}
   </style>
  
   <g id="_x31_-Building">
      <g>
         <g>
            <rect class="st2" height="44.1" width="26.5" x="18.8" y="16.3"/>
         </g>
         <g>
            <rect class="st0" height="37.5" width="17.7" x="1.1" y="22.9"/>
         </g>
         <g>
            <rect class="st0" height="37.5" width="17.7" x="45.2" y="22.9"/>
         </g>
         <g>
            <rect class="st0" height="15.4" width="8.8" x="27.6" y="45"/>
         </g>
		   <g>
            <g>
               <path class="st3" d="M62.9,21.8H46.3v-4.4h1.1c0.5,0,0.9-0.3,1-0.7c0.2-0.4,0-0.9-0.3-1.2L32.7,2.7c-0.4-0.3-1-0.3-1.4,0      L15.8,15.5c-0.4,0.3-0.5,0.8-0.3,1.2c0.2,0.4,0.6,0.7,1,0.7h1.1v4.4H1.1c-0.6,0-1.1,0.5-1.1,1.1v37.5c0,0.6,0.5,1.1,1.1,1.1      h17.7h8.8h8.8h8.8h17.7c0.6,0,1.1-0.5,1.1-1.1V22.9C64,22.3,63.5,21.8,62.9,21.8z M32,5l12.4,10.2H19.6L32,5z M2.2,24h15.4v35.3      H2.2V24z M19.9,22.9v-5.5h24.3v5.5v36.4h-6.6V45c0-0.6-0.5-1.1-1.1-1.1h-8.8c-0.6,0-1.1,0.5-1.1,1.1v14.3h-6.6V22.9z M28.7,59.4      V46.1h6.6v13.2H28.7z M61.8,59.4H46.3V24h15.4V59.4z"/>
            </g>
            <g>
               <path class="st3" d="M32,35.1c3,0,5.5-2.5,5.5-5.5S35,24,32,24s-5.5,2.5-5.5,5.5S29,35.1,32,35.1z M32,26.2      c1.8,0,3.3,1.5,3.3,3.3c0,1.8-1.5,3.3-3.3,3.3s-3.3-1.5-3.3-3.3C28.7,27.7,30.2,26.2,32,26.2z"/>
            </g>
            <g>
               <path class="st3" d="M12,43.9H7.5c-0.6,0-1.1,0.5-1.1,1.1v8.8c0,0.6,0.5,1.1,1.1,1.1H12c0.6,0,1.1-0.5,1.1-1.1V45      C13.1,44.4,12.6,43.9,12,43.9z M10.9,52.7H8.7v-6.6h2.2V52.7z"/>
            </g>
            <g>
               <path class="st3" d="M51.9,54.9h4.4c0.6,0,1.1-0.5,1.1-1.1V45c0-0.6-0.5-1.1-1.1-1.1h-4.4c-0.6,0-1.1,0.5-1.1,1.1v8.8      C50.8,54.4,51.3,54.9,51.9,54.9z M53,46.1h2.2v6.6H53V46.1z"/>
            </g>
            <g>
               <path class="st3" d="M51.9,39.5h4.4c0.6,0,1.1-0.5,1.1-1.1v-8.8c0-0.6-0.5-1.1-1.1-1.1h-4.4c-0.6,0-1.1,0.5-1.1,1.1v8.8      C50.8,39,51.3,39.5,51.9,39.5z M53,30.7h2.2v6.6H53V30.7z"/>
            </g>
            <g>
               <path class="st3" d="M12.1,28.5H7.7c-0.6,0-1.1,0.5-1.1,1.1v8.8c0,0.6,0.5,1.1,1.1,1.1h4.4c0.6,0,1.1-0.5,1.1-1.1v-8.8      C13.2,28.9,12.7,28.5,12.1,28.5z M11,37.3H8.8v-6.6H11V37.3z"/>
            </g>
         </g>
         <!-- <g>
            <circle class="st0" cx="32" cy="29.6" r="4.4"/>
         </g> -->
         <g>
            <rect class="st1" height="8.8" width="4.4" x="7.5" y="45"/>
         </g>
         <g>
            <rect class="st1" height="8.8" width="4.4" x="51.9" y="45"/>
         </g>
         <g>
            <rect class="st1" height="8.8" width="4.4" x="51.9" y="29.6"/>
         </g>
         <g>
            <rect class="st1" height="8.8" width="4.4" x="7.7" y="29.6"/>
         </g>
         <g>
            <polygon class="st1" points="32,3.5 16.6,16.3 47.4,16.3    "/>
         </g>
       
		<g>
            <circle class="st0" cx="32" cy="29.6" r="4.4"/>
         </g>
      </g>
   </g>
</svg>